<?xml version="1.0" encoding="utf-8"?>
<!-- Generator: Adobe Illustrator 23.0.6, SVG Export Plug-In . SVG Version: 6.00 Build 0)  -->
<svg version="1.1" id="Layer_1" xmlns="http://www.w3.org/2000/svg" xmlns:xlink="http://www.w3.org/1999/xlink" x="0px" y="0px"
	 viewBox="0 0 500 300" style="enable-background:new 0 0 500 300;" xml:space="preserve">
<style type="text/css">
	.st0{fill:#FFFFFF;}
</style>
<g>
	<path class="st0" d="M110.23,68.44"/>
	<path class="st0" d="M165.78,102.93c0,0-2.93,2.55-2.99,3.61c-0.06,1.06-0.26,2.29,0.62,2.14c0.88-0.15,1.7-1.2,3.29-1.64
		c1.58-0.44,2.85-0.47,3.05-0.06c0.21,0.41,0.09,0.94-0.47,1.64c-0.56,0.7-1.17,1.76-1.11,3.11c0.06,1.35,0.06,3.08,0.91,2.93
		c0.85-0.15,1.41-1.47,2.7-3.2s6.28-6.42,7.6-10c0,0,0.91-2.05,0.29-2.73s-1.92,1.53-2.49,1.55c-0.7,0.03-2.05-1.17-1.64-1.85
		c0,0,1.29-1.61,2.26-3.14s2.38-3.87,1.03-6.07c-1.35-2.2-2.9-1.44-2.9-1.44s-0.88,0.32-1.14,2.79c-0.21,1.98-1.57,6.12-2.17,7.71
		c0,0-0.41,1.23-0.54-0.09c-0.07-0.67-0.1-1.73,0.13-3.11c0.41-2.43,0.32-2.79-0.21-3.17c0,0-1.58-0.85-2.14,0.23
		c-0.56,1.09-0.67,1.14-1,4.78C168.51,100.59,167.33,101.67,165.78,102.93z"/>
	<ellipse class="st0" cx="153.65" cy="64.88" rx="3.09" ry="6.14"/>
	<ellipse class="st0" cx="160.8" cy="94.37" rx="2.97" ry="5.28"/>
	<path class="st0" d="M441.2,235.48c-3.67-1.38-14.23-0.91-18.63-0.79c-4.4,0.12-18.65,1.11-24.7,1.41
		c-6.04,0.29-7.98-0.85-12.32-2.05s-13.64-3.73-13.64-3.73c-8.98-2.49-12.59-2.1-15.31-1.85c-3.14,0.29-3.64,1.44-5.51,3.75
		c-1.88,2.32-5.13,5.95-9.47,9.5s-7.16,2.38-7.16,2.38s-2.52-0.91-6.28-6.86c-3.75-5.95-7.48-9.8-8.83-11.41
		c-1.35-1.61-3.37-2.55-6.25-2.73c-2.87-0.18-7.1,2.23-7.1,2.23c-3.73,1.76-9.86,7.33-12.58,11.41c-2.7,4.04-6.07,6.57-8.12,8.12
		c-2.05,1.55-3.75,0.41-3.75,0.41s-2.2-0.85-6.28-6.16s-9.39-10.15-9.39-10.15s-3.87-2.79-6.34-2.73c-2.46,0.06-4.4,1.17-5.78,1.85
		c-1.38,0.67-8.01,5.66-11.29,8.74c-3.29,3.08-9.03,6.86-9.03,6.86s-4.28,3.05-8.21,2.96c-3.93-0.09-7.42-3.11-7.42-3.11
		s-6.89-6.07-12.17-12.88c-5.28-6.8-9.71-8.54-9.71-8.54c-2.93-1.35-7.66,0.56-7.66,0.56c-3.29,1.09-12.06,4.78-24.29,7.45
		c-12.23,2.67-17.42,2.35-23.23,2.08s-12.91-4.69-15.46-6.28c-2.55-1.58-8.92-3.61-8.92-3.61c-7.07-3.67-7.36-5.34-12.35-10.32
		c-3.55-3.55-7.92-12.47-9.39-16.16c-1.47-3.7-0.62-6.72-0.62-6.72s1.32-4.02,4.96-3.99s7.27-2.2,9.42-0.85
		c2.14,1.35,1.14,3.34,1.14,3.34s-1.03,2.02-3.61,2.55c-2.58,0.53-5.07,2.02-5.07,2.02s-1.85,0.97-1.14,3.58
		c0.54,2.02,3.96,2.7,7.83,1.85c3.87-0.85,8.36-1.06,11.38-1.2c3.02-0.15,9.24,1.61,15.22,2.41c5.98,0.79,9.91,3.37,9.91,3.37
		s2.46,1.41,3.11,2.58s-1.41,2.64-1.41,2.64s-1.17,0.91,0.5,1.06c1.58,0.14,3.31-2.55,3.31-2.55c1.53-1.79-0.26-3.11-0.26-3.11
		l-5.65-4.23c-0.1-0.07-0.05-0.23,0.07-0.23c1.88,0.01,10.32,0.04,11.86,0.12c1.73,0.09,1.55,1.32,1.55,1.32
		c0.18,0.96-1.34,3.51-2.02,4.6c-0.33,0.53-0.45,1.17-0.29,1.77c0.13,0.5,0.41,1.13,0.96,1.9c1.28,1.79,2.65,2.08,3.37,2.1
		c0.32,0.01,0.62-0.09,0.89-0.25c2.28-1.36,0.9-3.37,0.9-3.37c-0.73-0.94-2.52-1.97-2.7-3.17c-0.09-0.6,0.29-1.11,3.02-3.37
		c1.4-1.16,2.12-2.27,2.49-3.07c0.26-0.57-0.19-1.2-0.82-1.16c-4.52,0.28-8.18,0.13-10.05-0.1c-0.84-0.1-0.95-1.06-0.32-1.62
		c0.42-0.37,1.8-0.84,2.66-1.36c1.03-0.62-0.23-0.32-0.23-0.32l-14.17,1.94c-5.22,0.88-5.87-0.79-5.87-0.79s-0.73-1.09,0.21-1.47
		c0.99-0.4,0.5-0.94,0.5-0.94s-0.38-1.26-5.57-0.03c-5.19,1.23-10.62,1.47-10.62,1.47s-4.14,0.32,1.5-4.46
		c5.63-4.78,12.94-7.8,19.59-13.58c6.66-5.78,6.89-6.42,10.03-11.38c3.14-4.96,0-9.62,0-9.62s-4.28-7.24-12.82-2.58
		c-8.54,4.66-14.75,7.63-14.75,7.63s-4.69,2.08-5.95,1.26s-0.23-2.55,0.18-4.02c0.41-1.47,7.19-17.22,7.19-17.22
		s0.79-1.29,2.38-8.33c1-4.45,1.85-6.14,2.34-6.79c0.13-0.17,0.39-0.07,0.38,0.14c-0.04,2.21,2.44,4.89,2.44,4.89
		c3.55,5.31,9.47,8.27,9.47,8.27s3.26,1.32,5.46,0.23s3.84-3.17,8.54-9.09c4.69-5.92,8.07-13.9,8.07-13.9s1.38-3.11,0.5-3.67
		c-0.58-0.37-1.55,0.38-3.61,2.08s-9.68,9.83-9.68,9.83c-2.3,2.42-5.03,5.09-6.53,6.54c-0.67,0.65-1.75,0.51-2.27-0.27
		c-1.23-1.89-2.3-4.91-3.23-8.47c-1.2-4.6-5.28-6.07-5.28-6.07c-2.9-1-2.9-3.75-2.9-3.75c-0.29-4.6,0.41-9.59,0.41-9.59
		s0.26-2.43,1.76-3.93s6.07,0.29,11.38-2.26c5.31-2.55,12.41-7.71,13.93-8.68c1.53-0.97,2.11-1.11,4.93-1.41
		c2.82-0.29,4.93-0.91,9.3-2.87c4.37-1.97,3.7-3.64,3.7-3.64c-0.82-2.2-6.89-2.02-18.36-2.41c-11.46-0.38-25.55,3.58-25.55,3.58
		c-2.11,0.53-6.66,1.94-10.53,5.07c-3.01,2.44-7.16,4.71-8.87,5.61c-0.51,0.27-1.06,0.4-1.63,0.39c-2.98-0.06-12.84-0.25-14.23-0.25
		c-1.64,0-2.46,0.21-3.9,1.58c-1.88,1.81-4.93,0.76-4.93,0.76s-2.11-0.41,0.47-3.37c2.82-3.24,10.88-9.59,14.2-12.23
		c3.31-2.64,7.63-8.15,7.63-8.15s1.67-2.02,2.67-3.31c1-1.29,1.58-0.18,1.58-0.18c0.9,0.96,0.92,1.86,0.75,2.51
		c-0.12,0.43,0.24,0.84,0.68,0.77l3.88-0.61c0.35-0.05,0.69,0.13,0.84,0.45l0.22,0.48c0.24,0.52,0.92,0.62,1.31,0.2l1.45-1.6
		c1.58-2.14-1-3.02,0.35-4.69c0.69-0.85,0.85-1.03,4.11,0.56c3.26,1.58,3.81,0.29,3.81,0.29c0.49-2.98-0.86-5.12-2.11-6.41
		c-0.9-0.92-2.32-1.09-3.41-0.39c-2.17,1.39-5.88,3.56-6.59,2.58c-1-1.37,3.26-4.66,5.25-6.63c2-1.97,1.85-3.05,1.85-3.05
		s-0.21-1.61-2.35-0.41c-2.14,1.2-5.72,5.19-5.72,5.19s-1.76,1.99-2.7,1.53c-0.94-0.47-0.38-1.73-0.38-1.73
		c0.15-0.82,2.14-3.14,3.55-4.55c0.85-0.85,2.34-1.94,3.37-2.66c0.42-0.29,0.24-0.95-0.27-0.99c-3.71-0.32-4.65,1.68-4.65,1.68
		c-1.58,2.14-7.72,11.97-9,14.2c-2.14,3.73-6.48,5.57-8.74,6.86c-2.26,1.29-3.2,0.76-7.22,4.63c-4.02,3.87-8.74,10.5-10.06,12.14
		s-8.21,12.47-8.21,12.47s-2.64,4.84-2.41,6.69c0.23,1.85,1.41,1.94,3.17,1.99s4.63-0.82,8.54-2.64c3.9-1.82,9.03-3.49,9.03-3.49
		s1.98-0.5,2.99-0.03c0.82,0.38-0.44,1.58-0.44,1.58s-6.92,6.57-8.77,8.92c-1.85,2.35-3.58,6.66-5.57,12.2
		c-1.99,5.54-4.52,11.41-4.52,11.41c-0.78,2.12-1.73,3.66-2.44,4.63c-0.37,0.51-1.18,0.31-1.27-0.32c-0.4-2.93-1.27-9.19-1.87-12.64
		c-0.79-4.6-3.37-11.41-3.37-11.41c-1.61-4.99-4.58-6.98-4.58-6.98s-1.94-1.64-4.78,0.79c-2.85,2.43-3.43,6.07-4.81,9.27
		c-1.38,3.2-2.14,13.9-2.11,17.6s1.5,13.58,1.5,13.58c0.17,1.95,0.28,4,0.34,5.58c0.03,0.83-1.03,1.18-1.5,0.5
		c-0.69-1-1.54-2.29-2.44-3.73c-2.14-3.43-7.48-14.67-7.48-14.67c-2.23-5.46-7.45-14.84-7.45-14.84c-0.62-1.03-1.26-1.5-1.79-1.41
		c-0.84,0.14-0.21,2.02-0.21,2.02s1.85,4.66,3.64,7.98c1.19,2.21,2.02,4,2.44,4.95c0.08,0.18-0.15,0.35-0.29,0.21
		c-3.15-2.87-10.42-11.29-10.42-11.29c-0.76-1.11-1.79-0.47-1.79-0.47s-1.94,1.11,0.18,3.49c2.11,2.38,5.04,5.98,5.04,5.98
		c1.21,1.42,4.93,6.71,5.56,7.93c0.2,0.38-0.25,0.76-0.6,0.52l-3.46-2.44c-1.61-1.14-3.81-0.9-5.15,0.55l-0.7,0.76
		c-0.66,0.71-0.27,1.87,0.69,2.04c1.97,0.35,4.73,0.87,6.05,1.3c2.17,0.7,3.7,3.11,5.98,6.8c2.29,3.7,4.58,8.95,4.58,8.95l7.1,17.6
		c2.61,7.24,7.42,16.54,7.42,16.54s1.07,2.56,2.17,2.85c0.91,0.23,1.14-3.43,1.14-3.43c0.56-8.95-0.29-19.01-0.29-19.01l-0.1-7.26
		c0-0.28,0.38-0.37,0.49-0.11c1.32,3.01,4.89,11.16,7.29,16.46c2.99,6.6,8.48,12.64,9.88,14.78c1.41,2.14,8.56,13.35,12,18.71
		c3.43,5.37,8.27,10.91,14.49,15.49s9.68,6.22,18.36,9.56c8.68,3.34,17.39,2.2,23.76,2.29c6.36,0.09,13.58-2.55,22.35-7.42
		c8.77-4.87,18.83-8.56,19.92-8.83s4.05-0.65,7.92,2.79s14.69,15.19,14.69,15.19c3.49,3.93,6.27,5.6,9,7.27
		c2.26,1.38,5.04,1.11,5.04,1.11s3.05-0.32,6.66-3.49c3.6-3.16,9.83-8.18,9.83-8.18c3.08-2.58,11.73-10.09,14.05-11.44
		c2.19-1.27,4.28-0.03,4.28-0.03c2.29,0.94,7.74,8.24,7.74,8.24s4.93,6.45,7.98,9.15s7.13,1.73,7.13,1.73
		c2.49-0.32,4.99-2.38,8.39-5.57c3.4-3.2,7.89-8.95,11.67-12.82c3.78-3.87,6.57-3.61,6.57-3.61s4.19-0.12,8.21,5.78
		s11.03,12.52,11.03,12.52c2.11,2.05,3.9,2.85,5.57,2.87c1.81,0.03,2.9,0.12,6.19-1.88c4.04-2.45,8.86-8.15,8.86-8.15
		c1.85-2.08,3.29-5.16,9.09-5.48c5.81-0.32,16.43,2.61,21.41,3.64c4.99,1.03,12.03,2.7,12.03,2.7c2.51,0.63,16.34-0.47,25.4-0.5
		c8.92-0.03,15.99-0.47,20.36-0.91c4.37-0.44,4.78-1.26,4.78-1.26S444.86,236.86,441.2,235.48z M98.23,119.36
		c5.01-8.21,13.06-18.38,16.89-20.88c2.11-1.38,3.53-0.62,4.38,0.33c0.02,0.02,0.03,0.04,0.05,0.06l-22.63,22.55
		C97.38,120.72,97.82,120.03,98.23,119.36z M92.84,127.75l27.51-27.41c0.13,0.39,0.21,0.8,0.23,1.22c0.09,1.79,0.06,3.56-0.05,5.3
		l-33.68,33.57C88.46,135.47,90.64,131.34,92.84,127.75z M85.76,144.22l34.47-34.35c-0.24,1.87-0.59,3.71-1.02,5.53l-34.58,35.65
		C84.87,148.62,85.25,146.34,85.76,144.22z M84.31,156.98c0-1.01,0.04-1.97,0.08-2.93l33.78-34.83c-0.95,3.15-2.12,6.26-3.41,9.34
		l-30.33,31.27C84.34,158.17,84.31,156.98,84.31,156.98z M84.55,161.86l28.51-29.39c-1.45,3.22-2.99,6.43-4.51,9.65
		c-0.23,0.48-0.46,0.96-0.71,1.44l-22.86,22.86C84.8,164.98,84.66,163.35,84.55,161.86z M89,170.36c0,0-2.19,2.35-3.29-0.47
		c-0.12-0.31-0.23-0.7-0.33-1.14l18.99-18.99C97.71,160.62,89,170.36,89,170.36z"/>
	<path class="st0" d="M456.3,188.82l18.07-33.71c0,0,2.21-3.73-1.64-6.26c-3.52-2.31-6.99-3.8-10.93-4.71
		c-5.32-1.23-10.92,0.02-15.28,3.33l-6.44,4.89c-0.57,0.44-1.38-0.1-1.19-0.8l2.29-7.46c0.31-1.03-0.5-2.05-1.57-1.98l-12.3,0.84
		c-1.73,0.12-3.29,1.05-4.22,2.52c-4.83,7.68-20.99,32.94-37.81,54.14c0,0-3.99,6.02-6.02,5.71c-2.03-0.31,0.23-10.48,0.23-10.48
		s4.15-16.74,12.12-29.8c5.99-9.8,9.06-14.36,10.23-16.03c0.29-0.42,0.15-1-0.31-1.24c-1.9-0.96-6.43-3.17-8.98-3.78
		c-3.29-0.78-8.92-2.35-11.11,1.72c0,0-13.77,29.17-18.46,37.86c-4.69,8.68-13.45,23.78-17.76,22.84c-4.3-0.94-6.65-9.86-6.65-9.86
		s-3.6-14.63-0.16-29.57c3.44-14.94,12.05-35.51,12.05-35.51s7.2-19.95,8.06-26.83c0.86-6.88,3.05-10.64,0.39-19.24
		s-9.86,1.8-9.86,1.8s-7.35,12.44-13.84,30.27c-6.49,17.83-9.93,26.98-12.98,40.91c-3.05,13.92-3.05,21.74-3.05,21.74
		s-12.83,19.32-17.36,23.62c-4.54,4.3-5.94,0.23-5.94,0.23s-2.66-0.55-3.05-16.89c-0.39-16.35,2.97-27.53,2.97-27.53
		s2.27-8.76,6.26-15.72c3.99-6.96,10.95-25.81,10.95-25.81s5.55-15.33,7.43-24.56c1.88-9.23,0.63-9.54-0.47-10.32
		c-1.1-0.78-4.54-4.07-9.62-0.86c-5.08,3.21-10.95,14.31-10.95,14.31s-8.45,16.58-12.83,29.17c-4.38,12.59-8.29,23.39-10.17,34.42
		c-1.88,11.03-3.83,28.39-6.02,34.96c-2.06,6.17-9.31,12.98-13.06,14.31c0,0-7.04,3.05-12.67-3.13c0,0,5.79-5.08,10.48-16.82
		s8.06-19.79,10.09-30.97c2.03-11.18,2.82-24.79,1.8-31.99c-1.02-7.2-3.6-22.92-12.83-31.36c-9.23-8.45-23.62-7.67-23.62-7.67
		s-10.64,0.31-16.31,3.79c0,0-18.89,7.98-27.45,34.38s-8.8,34.73-8.56,43.06s-0.35,23,12.2,38.48s34.61,11.73,34.61,11.73
		s8.45-1.41,15.25-8.1c0,0,5.79,5.91,14.2,5.51c7.39-0.35,13.26-4.34,19.95-18.65c0,0,4.58,17.72,14.31,19.48
		c9.74,1.76,21.47-13.14,31.21-30.97c0,0,0.47,19.95,6.34,26.28c5.87,6.34,12.98,4.54,12.98,4.54s9.29-0.17,16.58-13.22
		c7.04-12.59,7.59-4.54,7.59-4.54s0.02,11.32,2.97,15.57c2.5,3.6,11.11,1.88,11.11,1.88s4.03-0.86,9.62-7.67
		c0,0,21.98-32.93,26.98-41.22l12.74-19.32c0.21-0.31,0.7-0.09,0.59,0.27c-0.77,2.61-2.15,7.12-3.31,9.98
		c0,0-10.34,24.45-13.92,32.62c-4.22,9.62-13.22,21.27-12.83,24.09c0,0-0.55,1.02,1.41,0.94c1.96-0.08,15.17,0.23,15.17,0.23
		s1.72,0.39,2.89-1.64c1.17-2.03,10.09-23,11.11-25.34c1.02-2.35,9.86-21.04,14.78-27.92c4.93-6.88,7.9-10.4,12.12-11.97
		c2.85-1.05,4.61-0.78,5.16,0.7c0.55,1.49,0.23,2.42-0.86,4.38c0,0-7.35,13.06-8.53,15.1c-1.17,2.03-14.7,25.19-16.35,29.57
		c-1.64,4.38-2.74,10.48-0.39,14.7c1.93,3.47,5.01,3.68,6.88,3.36c2.49-0.41,10.4-5.24,17.68-11.89l4.52-4.24
		c0.32-0.3-0.02-0.82-0.42-0.65c-2.62,1.11-7.2,2.76-11.23,2.82c-1.19,0.02-1.96-1.28-1.41-2.34L456.3,188.82z M204.64,126.58
		c-5.81,9.5-18.07,15.9-18.07,15.9C193.38,131.74,204.88,126.18,204.64,126.58z M202.88,137.02c-5.81,9.5-18.07,15.9-18.07,15.9
		C191.62,142.18,203.12,136.63,202.88,137.02z M183.93,163.65c6.8-10.74,18.31-16.29,18.07-15.9
		C196.19,157.26,183.93,163.65,183.93,163.65z M239.02,162.93c1.76-8.13,6.26-22.21,10.48-30.82s0.94-10.64,0.94-10.64
		s-2.58-2.97-6.26,1.72c-3.68,4.69-4.69,7.27-8.13,18.54c-3.44,11.26-4.15,30.74-4.22,42.78c-0.08,12.05,5.16,21.59,5.16,21.59
		c-2.35,3.91-9.15,7.2-9.15,7.2s-11.73,5.16-20.18-6.73c-8.45-11.89-5.94-29.02-5.71-39.42c0.23-10.4,7.12-34.57,7.12-34.57
		c2.35-7.67,8.37-22.6,15.02-31.44c6.73-8.95,14.39-8.06,14.39-8.06c3.75,0.39,8.99,4.61,11.65,7.82
		c2.66,3.21,10.56,12.67,11.81,29.02c1.25,16.35-2.97,28.63-7.35,42.47c-4.38,13.84-12.83,27.3-12.83,27.3
		C236.83,181.31,237.22,171.22,239.02,162.93z M277.58,189.12c1.62-9.84,8.02-14.71,7.99-14.39
		C284.83,183.04,277.58,189.12,277.58,189.12z M279.28,196.16c1.62-9.84,8.02-14.71,7.99-14.39
		C286.53,190.08,279.28,196.16,279.28,196.16z M281.66,203.23c1.62-9.84,8.02-14.71,7.99-14.39
		C288.91,197.15,281.66,203.23,281.66,203.23z M289.47,151.39c0,0-4.34,3.05-3.17-4.93s16.54-44.58,21-53.15
		c4.46-8.56,8.8-6.8,8.8-6.8c0.12,5.28-12.32,38.25-17.6,50.8S289.47,151.39,289.47,151.39z M323.34,188.77
		c1.62-9.84,8.02-14.71,7.99-14.39C330.59,182.69,323.34,188.77,323.34,188.77z M325.04,195.81c1.62-9.84,8.02-14.71,7.99-14.39
		C332.29,189.73,325.04,195.81,325.04,195.81z M327.41,202.88c1.62-9.84,8.02-14.71,7.99-14.39
		C334.67,196.79,327.41,202.88,327.41,202.88z M332.29,151.74c-2.11-4.22,3.99-20.77,3.99-20.77s11.38-30.97,15.13-36.96
		c3.75-5.98,4.11-1.76,4.11-1.76s1.53,3.17-5.98,25.22c-4.77,14.01-11.73,30.86-11.73,30.86S334.4,155.97,332.29,151.74z
		 M366.32,190.77c1.92-8.68,8.67-12.91,8.61-12.59C373.32,186.7,366.32,190.77,366.32,190.77z M366.55,197.77
		c1.92-8.68,8.67-12.91,8.61-12.59C373.55,193.7,366.55,197.77,366.55,197.77z M367.33,204.66c1.92-8.68,8.67-12.91,8.61-12.59
		C374.33,200.59,367.33,204.66,367.33,204.66z M408.63,207.13c4.81-7.83,12.49-9.08,12.32-8.81
		C416.06,205.95,408.63,207.13,408.63,207.13z M410.27,200.28c4.81-7.83,12.49-9.08,12.32-8.81
		C417.7,199.1,410.27,200.28,410.27,200.28z M412.54,193.64c4.81-7.83,12.49-9.08,12.32-8.81
		C419.97,192.45,412.54,193.64,412.54,193.64z M435.73,208.89c4.81-7.83,12.49-9.08,12.32-8.81
		C443.16,207.71,435.73,208.89,435.73,208.89z M437.37,202.04c4.81-7.83,12.49-9.08,12.32-8.81
		C444.81,200.86,437.37,202.04,437.37,202.04z M439.64,195.39c4.81-7.83,12.49-9.08,12.32-8.81
		C447.07,194.21,439.64,195.39,439.64,195.39z"/>
	<path class="st0" d="M401.08,108.89c-5.57-0.37-10.47,5.13-10.95,12.28c-0.47,7.15,3.66,13.25,9.23,13.62
		c5.57,0.37,10.47-5.13,10.95-12.28C410.79,115.36,406.65,109.26,401.08,108.89z M405.03,119.05c-3.29,5.98-10.4,6.77-10.4,6.77
		C399.01,119.13,405.19,118.77,405.03,119.05z M394.67,131.14c4.38-6.7,10.56-7.05,10.4-6.77
		C401.79,130.35,394.67,131.14,394.67,131.14z"/>
</g>
</svg>
