<?xml version="1.0" encoding="utf-8"?>
<!-- Generator: Adobe Illustrator 23.0.6, SVG Export Plug-In . SVG Version: 6.00 Build 0)  -->
<svg version="1.1" id="Layer_1" xmlns="http://www.w3.org/2000/svg" xmlns:xlink="http://www.w3.org/1999/xlink" x="0px" y="0px"
	 viewBox="0 0 200 200" style="enable-background:new 0 0 200 200;" xml:space="preserve">
<g>
	<path d="M174.65,28.4H25.35C12.75,28.4,2.5,38.65,2.5,51.25v97.5c0,12.6,10.25,22.85,22.85,22.85h149.3
		c12.6,0,22.85-10.25,22.85-22.85v-97.5C197.5,38.65,187.25,28.4,174.65,28.4z M173.26,43.63L100,98.12L26.74,43.63H173.26z
		 M174.65,156.37H25.35c-4.2,0-7.62-3.42-7.62-7.62V55.92L100,117.11l82.27-61.19v92.83C182.27,152.95,178.85,156.37,174.65,156.37z
		"/>
</g>
</svg>
