<?xml version="1.0" encoding="utf-8"?>
<!-- Generator: Adobe Illustrator 23.0.6, SVG Export Plug-In . SVG Version: 6.00 Build 0)  -->
<svg version="1.1" id="Layer_1" xmlns="http://www.w3.org/2000/svg" xmlns:xlink="http://www.w3.org/1999/xlink" x="0px" y="0px"
	 viewBox="0 0 200 200" style="enable-background:new 0 0 200 200;" xml:space="preserve">
<path d="M62.93,86.33c4.86,20.41,31.1,45.68,50.54,50.54c8.75,1.94,18.47-2.92,21.38-11.66l0,0c3.89-12.63,20.41-16.52,30.13-6.8
	l27.21,27.21c6.8,6.8,6.8,18.47,0,26.24l-18.47,18.47c-19.44,19.44-70.95-1.94-116.63-47.62C11.42,97.02-8.99,45.51,9.48,26.07
	L27.94,7.6c6.8-6.8,18.47-6.8,26.24,0L81.4,34.82c9.72,9.72,5.83,26.24-6.8,30.13l0,0C65.85,67.86,60.02,77.58,62.93,86.33z"/>
</svg>
