<?xml version="1.0" encoding="utf-8"?>
<!-- Generator: Adobe Illustrator 23.0.6, SVG Export Plug-In . SVG Version: 6.00 Build 0)  -->
<svg version="1.1" id="Layer_1" xmlns="http://www.w3.org/2000/svg" xmlns:xlink="http://www.w3.org/1999/xlink" x="0px" y="0px"
	 viewBox="0 0 200 200" style="enable-background:new 0 0 200 200;" xml:space="preserve">
<g>
	<path d="M197.48,97.5c0,52.43-42.84,94.96-95.71,94.96c-16.79,0-32.53-4.28-46.25-11.83L2.52,197.5l17.26-50.98
		c-8.69-14.31-13.73-31.11-13.73-49.04C6.06,45.03,48.9,2.5,101.8,2.5C154.64,2.5,197.48,45.03,197.48,97.5L197.48,97.5z
		 M101.77,17.66c-44.36,0-80.47,35.82-80.47,79.85c0,17.48,5.68,33.65,15.34,46.81l-10.06,29.65l30.92-9.85
		c12.73,8.35,27.94,13.22,44.27,13.22c44.36,0,80.47-35.82,80.47-79.84C182.24,53.48,146.13,17.66,101.77,17.66L101.77,17.66z
		 M150.1,119.36c-0.59-0.97-2.14-1.56-4.5-2.7c-2.33-1.18-13.88-6.8-16.02-7.57c-2.17-0.78-3.72-1.18-5.28,1.18
		c-1.55,2.33-6.06,7.54-7.45,9.12c-1.37,1.56-2.73,1.74-5.06,0.6c-2.36-1.18-9.93-3.63-18.88-11.55
		c-6.99-6.18-11.71-13.79-13.07-16.15c-1.36-2.33-0.12-3.57,1.03-4.71c1.06-1.06,2.36-2.73,3.54-4.1c1.18-1.37,1.55-2.33,2.33-3.88
		c0.77-1.56,0.4-2.92-0.19-4.07c-0.59-1.18-5.28-12.64-7.23-17.29c-1.95-4.66-3.91-3.88-5.28-3.88c-1.37,0-2.92-0.19-4.5-0.19
		c-1.56,0-4.1,0.56-6.25,2.92c-2.17,2.33-8.23,7.95-8.23,19.4c0,11.48,8.42,22.54,9.59,24.09c1.18,1.53,16.24,25.83,40.08,35.14
		c23.87,9.31,23.87,6.21,28.16,5.81c4.32-0.41,13.88-5.62,15.83-11.05C150.7,125,150.7,120.35,150.1,119.36L150.1,119.36z
		 M150.1,119.36"/>
</g>
</svg>
